<svg width="82" height="66" viewBox="0 0 82 66" fill="none" xmlns="http://www.w3.org/2000/svg">
<path d="M21.454 21.9735H4.23177C2.88922 21.9735 1.80096 20.8852 1.80096 19.5427V17.2291C1.80096 16.7131 2.2193 16.2948 2.73527 16.2948H22.9505C23.4665 16.2948 23.8848 16.7131 23.8848 17.2291V19.5427C23.8848 20.8852 22.7966 21.9735 21.454 21.9735Z" fill="#FD7E41"/>
<path d="M22.9505 16.2948H18.2182C18.7342 16.2948 19.1525 16.7131 19.1525 17.2291V19.5427C19.1525 20.8852 18.0643 21.9735 16.7217 21.9735H21.454C22.7965 21.9735 23.8848 20.8852 23.8848 19.5427V17.2291C23.8848 16.7131 23.4665 16.2948 22.9505 16.2948Z" fill="#FD7E41"/>
<path d="M20.6068 11.8672H5.07898V10.9042C5.07898 6.61626 8.55498 3.14026 12.8429 3.14026C17.1308 3.14026 20.6068 6.61626 20.6068 10.9042V11.8672Z" fill="#CFDBE4"/>
<path d="M12.8429 3.14026C12.0176 3.14026 11.2229 3.27055 10.4767 3.50969C13.6073 4.51309 15.8745 7.45245 15.8745 10.9237V11.8672H20.6068V10.9237C20.6068 6.62509 17.1308 3.14026 12.8429 3.14026Z" fill="#AFBBC6"/>
<path d="M19.9932 16.2949H5.6926C5.23941 16.2949 4.83228 15.9284 4.66665 15.3713L3.62445 11.8671H22.0613L21.0191 15.3713C20.8535 15.9284 20.4463 16.2949 19.9932 16.2949Z" fill="#7B727B"/>
<path d="M17.3291 11.8671L16.2869 15.3713C16.1211 15.9284 15.7141 16.2949 15.2609 16.2949H19.9932C20.4464 16.2949 20.8535 15.9284 21.0191 15.3713L22.0613 11.8671H17.3291Z" fill="#686169"/>
<path d="M4.28668 49.0384V53.3631C4.28668 53.8863 4.71038 54.3107 5.23313 54.3107H63.5703C63.5703 54.3107 66.8026 49.0586 66.8026 41.8391C66.8026 34.6196 63.5703 28.3748 63.5703 28.3748H57.9724V46.4174C57.9724 46.4174 49.5594 46.6917 47.7095 46.6917C45.229 46.6917 39.4338 44.6786 39.4338 42.1953V37.4864C39.4338 35.0898 37.4932 33.1472 35.0995 33.1472H20.1681C11.3971 33.1471 4.28668 40.2619 4.28668 49.0384Z" fill="#FD7E41"/>
<path d="M63.5702 28.3748H60.8927C60.8927 28.3748 62.0704 34.6198 62.0704 41.8391C62.0704 49.0585 58.8381 54.3107 58.8381 54.3107H63.5704C63.5704 54.3107 66.8027 49.0585 66.8027 41.8391C66.8027 34.6198 63.5702 28.3748 63.5702 28.3748Z" fill="#FD7E41"/>
<path d="M34.7015 37.4863V42.1952C34.7015 44.6785 36.7123 46.6916 39.1928 46.6916C39.8626 46.6916 45.1776 46.6556 46.8574 46.6097C44.7845 46.2109 39.4337 44.3867 39.4337 42.1952V37.4863C39.4337 35.0897 37.4932 33.1471 35.0994 33.1471H30.3672C32.7609 33.1469 34.7015 35.0897 34.7015 37.4863Z" fill="#FD7E41"/>
<path d="M20.0296 64.8794C25.6923 64.8794 30.2828 60.2888 30.2828 54.6261C30.2828 48.9634 25.6923 44.3729 20.0296 44.3729C14.3669 44.3729 9.77637 48.9634 9.77637 54.6261C9.77637 60.2888 14.3669 64.8794 20.0296 64.8794Z" fill="#A7A9BE"/>
<path d="M66.3894 64.8794C72.0521 64.8794 76.6427 60.2888 76.6427 54.6261C76.6427 48.9634 72.0521 44.3729 66.3894 44.3729C60.7268 44.3729 56.1362 48.9634 56.1362 54.6261C56.1362 60.2888 60.7268 64.8794 66.3894 64.8794Z" fill="#A7A9BE"/>
<path d="M66.3894 58.1374C68.3287 58.1374 69.9008 56.5653 69.9008 54.6261C69.9008 52.6868 68.3287 51.1147 66.3894 51.1147C64.4502 51.1147 62.8781 52.6868 62.8781 54.6261C62.8781 56.5653 64.4502 58.1374 66.3894 58.1374Z" fill="#EFEFEF"/>
<path d="M23.568 54.8722C23.7057 52.9369 22.2483 51.2563 20.313 51.1186C18.3776 50.9809 16.6971 52.4382 16.5594 54.3736C16.4217 56.309 17.879 57.9895 19.8144 58.1272C21.7497 58.2649 23.4303 56.8076 23.568 54.8722Z" fill="#EFEFEF"/>
<path d="M6.85292 54.3107H33.2062C33.5655 54.3107 33.8548 54.0105 33.8381 53.6513C33.4942 46.3173 27.4433 40.4766 20.0296 40.4766C12.6159 40.4766 6.56504 46.3173 6.22116 53.6513C6.20428 54.0106 6.49358 54.3107 6.85292 54.3107Z" fill="#43BA7F"/>
<path d="M20.0296 40.4767C19.2225 40.4767 18.4328 40.5499 17.6635 40.6827C23.9596 41.7702 28.7994 47.1159 29.1059 53.6514C29.1228 54.0106 28.8334 54.3108 28.474 54.3108H33.2063C33.5656 54.3108 33.8549 54.0106 33.8382 53.6514C33.4942 46.3174 27.4433 40.4767 20.0296 40.4767Z" fill="#2D9461"/>
<path d="M14.4301 54.3064H25.6291C25.6291 51.2136 23.1224 48.7069 20.0296 48.7069C16.9367 48.7069 14.4301 51.2136 14.4301 54.3064Z" fill="#FFE589"/>
<path d="M15.0933 33.171H36.6249C38.3983 33.171 39.836 31.7334 39.836 29.9599C39.836 29.1179 39.1535 28.4353 38.3114 28.4353H15.0933C13.7856 28.4353 12.7254 29.4955 12.7254 30.8032C12.7254 32.1108 13.7856 33.171 15.0933 33.171Z" fill="#7B727B"/>
<path d="M38.3116 28.4353H33.5793C34.4214 28.4353 35.1039 29.1179 35.1039 29.9599C35.1039 31.7334 33.6663 33.171 31.8928 33.171H36.625C38.3985 33.171 39.8362 31.7334 39.8362 29.9599C39.8362 29.1179 39.1536 28.4353 38.3116 28.4353Z" fill="#686169"/>
<path d="M53.226 54.3107H79.5664C79.9256 54.3107 80.2147 54.0105 80.198 53.6513C79.8543 46.3173 73.8063 40.4766 66.3962 40.4766C58.9861 40.4766 52.9382 46.3173 52.5944 53.6513C52.5777 54.0106 52.867 54.3107 53.226 54.3107Z" fill="#43BA7F"/>
<path d="M66.3962 40.4767C65.5891 40.4767 64.7992 40.5499 64.0301 40.6829C70.3226 41.7708 75.1594 47.1162 75.4657 53.6513C75.4826 54.0105 75.1933 54.3106 74.8341 54.3106H79.5664C79.9256 54.3106 80.2147 54.0105 80.198 53.6513C79.8543 46.3174 73.8063 40.4767 66.3962 40.4767Z" fill="#2D9461"/>
<path d="M60.7995 54.3064H71.993C71.993 51.2136 69.4876 48.7069 66.3963 48.7069C63.3051 48.7069 60.7995 51.2136 60.7995 54.3064Z" fill="#FFE589"/>
<path d="M57.7898 28.3746H70.5779C71.3952 28.3746 72.0577 27.7121 72.0577 26.8948V23.3185C72.0577 22.5013 71.3952 21.8387 70.5779 21.8387H62.3474C59.8303 21.8387 57.7898 23.8793 57.7898 26.3964V28.3746Z" fill="#43BA7F"/>
<path d="M66.8026 28.3746H70.5783C71.3954 28.3746 72.0578 27.7123 72.0578 26.8952V23.3188C72.0578 22.5014 71.3951 21.8387 70.5777 21.8387H66.8026V28.3746Z" fill="#FFE589"/>
<path d="M54.0936 16.4756C55.836 16.4756 57.2485 15.0631 57.2485 13.3207C57.2485 11.5784 55.836 10.1659 54.0936 10.1659C52.3512 10.1659 50.9388 11.5784 50.9388 13.3207C50.9388 15.0631 52.3512 16.4756 54.0936 16.4756Z" fill="#43BA7F"/>
<path d="M79.6896 47.3475C79.3864 46.7686 78.6711 46.5452 78.0926 46.8482C77.5139 47.1512 77.2904 47.8663 77.5934 48.445C78.3609 49.9108 78.8252 51.4835 78.9761 53.1276H73.0715C71.6112 45.6936 61.1785 45.6989 59.7211 53.1276H53.8165C54.665 43.1279 66.6854 38.103 74.416 44.5349C74.9206 44.9504 75.6661 44.8783 76.0814 44.3739C76.4969 43.8696 76.4248 43.1239 75.9204 42.7086C73.627 40.8198 70.8119 39.6615 67.8691 39.3694C67.4851 35.1848 66.2358 31.5801 65.402 29.5577H70.5783C72.0465 29.5577 73.241 28.3633 73.241 26.8951V23.3185C73.241 21.8503 72.0465 20.6557 70.5781 20.6557H63.392L63.0807 18.1615C62.791 15.8433 61.2843 13.8152 59.1483 12.8686L58.356 12.5175C57.978 10.5081 56.2112 8.98294 54.0938 8.98294C48.3389 9.22129 48.3408 17.4213 54.0938 17.6587C55.8941 17.6587 57.4414 16.5561 58.097 14.9909L58.1897 15.032C59.5711 15.6442 60.5456 16.9557 60.7327 18.4549L61.0269 20.811C58.4962 21.4094 56.6068 23.6857 56.6068 26.3967V27.1919H53.8013C52.2348 27.2461 52.2361 29.5044 53.8013 29.558H56.7891V31.1693C56.8434 32.7359 59.1016 32.7346 59.1553 31.1693V29.558H62.8216C63.4818 31.0218 65.028 34.8346 65.4875 39.3219C63.2029 39.458 61.0538 40.1029 59.1551 41.149V36.8319C59.1008 35.2654 56.8426 35.2667 56.789 36.8319V42.7657C55.8777 43.5254 55.0582 44.3922 54.349 45.347C51.8471 45.4222 48.7383 45.5088 47.7094 45.5088C46.7348 45.5088 44.8519 45.094 43.138 44.3012C41.4057 43.4997 40.6167 42.6479 40.6167 42.1953V37.4864C40.6167 35.9858 40.0149 34.624 39.041 33.6277C40.2316 32.8408 41.0191 31.491 41.0191 29.9599C41.0191 28.467 39.8044 27.2523 38.3114 27.2523H15.7938L13.5485 23.1567H21.4542C23.4469 23.1567 25.0681 21.5356 25.0681 19.5428V17.2292C25.0681 16.0618 24.1183 15.1118 22.9507 15.1118H22.3306L22.9439 13.0502H23.6134C25.1799 12.9959 25.1786 10.7377 23.6134 10.684H21.7845C21.6766 6.25117 18.3306 2.60923 14.026 2.03773V1.30944C13.9717 -0.257097 11.7135 -0.255835 11.6598 1.30944V2.03773C7.35523 2.60923 4.00937 6.25117 3.90147 10.684H2.07261C0.506081 10.7383 0.507343 12.9965 2.07261 13.0502H2.74207L3.35537 15.1118H2.73529C1.56768 15.1118 0.61792 16.0618 0.61792 17.2292V19.5428C0.61792 21.5356 2.23903 23.1567 4.23178 23.1567H10.8502L13.3478 27.7127C11.1685 28.9183 10.9161 32.0552 12.8928 33.587C11.8305 34.0898 10.8145 34.7051 9.85843 35.4313C9.3382 35.8265 9.23693 36.5687 9.63192 37.0891C10.0272 37.6093 10.7692 37.7107 11.2898 37.3156C13.6471 35.5249 16.4246 34.5108 19.3655 34.3543H35.471C37.0339 34.5393 38.2508 35.8722 38.2508 37.4864V42.1953C38.0773 45.5006 44.8385 47.9172 47.7097 47.8748C48.5602 47.8748 50.7535 47.8185 52.8894 47.757C52.096 49.3984 51.5915 51.2099 51.4429 53.1278H34.99C33.3832 36.1813 9.79392 34.3472 5.46974 50.6495V49.0385C5.46974 46.1822 6.28842 43.4128 7.8376 41.0298C8.19378 40.4819 8.03825 39.7492 7.49057 39.3932C6.94289 39.0372 6.21002 39.1925 5.85384 39.7404C4.05464 42.5081 3.10361 45.7234 3.10361 49.0386V53.3634C3.10361 54.5383 4.0589 55.494 5.23313 55.494H8.62962C10.1069 69.5072 29.9577 69.4968 31.4296 55.494H54.9899C56.4672 69.5072 76.318 69.4968 77.7899 55.494H79.5664C80.0603 55.494 80.5394 55.289 80.8804 54.9312C81.2208 54.5744 81.4028 54.0876 81.3796 53.5964C81.2766 51.395 80.708 49.2926 79.6896 47.3475ZM54.0938 15.2926C53.0065 15.2926 52.122 14.4082 52.122 13.3208C52.2304 10.705 55.9577 10.7058 56.0656 13.3208C56.0656 14.4082 55.1811 15.2926 54.0938 15.2926ZM70.5778 23.022C70.7415 23.022 70.8748 23.1552 70.8748 23.319V26.895C70.8748 27.0586 70.7417 27.1917 70.5781 27.1917H67.9856V23.022H70.5778ZM58.9731 27.1917V26.3965C58.9731 24.5366 60.4856 23.0234 62.3453 23.0221C62.3464 23.0223 62.3475 23.022 62.3486 23.022H65.6197V27.1917H58.9731ZM12.8429 4.32325C16.3981 4.32325 19.3039 7.15661 19.4201 10.684H6.26571C6.38196 7.15661 9.28772 4.32325 12.8429 4.32325ZM5.80053 15.0341L5.21057 13.0502H20.4752L19.8853 15.0341C19.8757 15.0661 19.8651 15.092 19.8552 15.112H5.83081C5.82072 15.092 5.81015 15.0659 5.80053 15.0341ZM2.98405 19.5428V17.478H22.7018V19.5428C22.7018 20.2309 22.1419 20.7905 21.454 20.7905H4.23178C3.54387 20.7905 2.98405 20.2309 2.98405 19.5428ZM15.0932 31.988C13.5256 31.9323 13.5255 29.6753 15.0918 29.6184C15.0939 29.6187 15.0959 29.6184 15.0981 29.6184H38.3117C38.4999 29.6184 38.6532 29.7716 38.6532 29.9599C38.6532 31.0783 37.7434 31.988 36.6252 31.988H15.0932ZM20.0296 63.6963C15.321 63.6963 11.4403 60.0894 11.0019 55.4937H15.4169C16.4684 60.5706 23.593 60.5669 24.6423 55.4937H29.0572C28.619 60.0895 24.7382 63.6963 20.0296 63.6963ZM22.1885 55.4937C21.4021 57.4319 18.656 57.4308 17.8706 55.4937H22.1885ZM15.7739 53.1233C17.0024 48.838 23.0584 48.8408 24.2852 53.1233H15.7739ZM26.7075 53.1276C25.2468 45.6936 14.8093 45.6989 13.3516 53.1276H7.44325C9.24245 37.9148 30.8223 37.9257 32.6162 53.1276H26.7075ZM68.5488 55.4937C67.7626 57.4321 65.0165 57.4308 64.2311 55.4937H68.5488ZM66.3962 49.89C68.4205 49.89 70.1311 51.2607 70.6491 53.1233H62.1434C62.6614 51.2607 64.3719 49.89 66.3962 49.89ZM66.3899 63.6963C61.6813 63.6963 57.8006 60.0894 57.3622 55.4937H61.7772C62.8287 60.5705 69.9531 60.5669 71.0024 55.4937H75.4175C74.9794 60.0895 71.0987 63.6963 66.3899 63.6963Z" fill="black"/>
</svg>
