<svg width="76" height="65" viewBox="0 0 76 65" fill="none" xmlns="http://www.w3.org/2000/svg">
<path d="M74.8867 10.6164H19.9648L24.8511 1.86096C25.1086 1.39947 25.596 1.11328 26.1247 1.11328H68.7269C69.2556 1.11328 69.7428 1.39932 70.0005 1.86096L74.8867 10.6164Z" fill="#E3C762"/>
<path d="M70.0005 1.86084C69.7429 1.39935 69.2556 1.11316 68.7269 1.11316H63.4459C63.9747 1.11316 64.462 1.3992 64.7195 1.86084L69.6058 10.6163H74.8867L70.0005 1.86084Z" fill="#E3C762"/>
<path d="M70.1703 46.8321H24.6813L19.9648 10.6165H74.8867L70.1703 46.8321Z" fill="#FFE589"/>
<path d="M69.6057 10.6165L64.8893 46.8321H70.1702L74.8867 10.6165H69.6057Z" fill="#E3C762"/>
<path d="M57.8531 29.6443H37.6342C37.2739 29.6443 36.9819 29.3523 36.9819 28.9921V28.2341C36.9819 22.2905 41.8001 17.4724 47.7437 17.4724C53.6872 17.4724 58.5054 22.2905 58.5054 28.2341V28.9921C58.5054 29.3522 58.2132 29.6443 57.8531 29.6443Z" fill="#43BA7F"/>
<path d="M47.7437 17.4724C46.9801 17.4724 46.2357 17.5532 45.5171 17.7044C50.3919 18.7301 54.0522 23.0541 54.0522 28.2341V28.9921C54.0522 29.3523 53.7603 29.6443 53.4 29.6443H57.8531C58.2134 29.6443 58.5054 29.3523 58.5054 28.9921V28.2341C58.5054 22.2905 53.6871 17.4724 47.7437 17.4724Z" fill="#5ACB93"/>
<path d="M60.2344 46.8195C60.2344 48.3029 59.0382 49.5054 57.5626 49.5054H43.7224C40.4293 49.5054 37.1839 50.297 34.257 51.814L18.2542 60.109C16.9511 60.7845 15.5475 61.2447 14.0978 61.472L1.45615 63.4536C1.27609 63.4818 1.1134 63.3424 1.1134 63.1598V50.2476C1.1134 50.0973 1.22533 49.9707 1.37421 49.9525L8.59747 49.066C9.91278 48.9046 11.1907 48.5177 12.3751 47.9223L17.5664 45.3128C19.1172 44.5332 20.5157 43.4793 21.6949 42.2014L30.3445 32.8274C31.2343 31.863 32.701 31.7111 33.7691 32.4726C34.9555 33.3186 35.2257 34.976 34.3698 36.1585L29.7081 42.5984C29.2456 43.2373 29.6996 44.1339 30.4858 44.1339H57.5626C59.0382 44.1337 60.2344 45.3362 60.2344 46.8195Z" fill="#A7A9BE"/>
<path d="M29.9166 36.158L25.2549 42.5982C24.7924 43.237 25.2464 44.1336 26.0326 44.1336H30.4857C29.6996 44.1336 29.2456 43.237 29.708 42.5982L34.3697 36.158C35.2256 34.9757 34.9554 33.3183 33.769 32.4722C32.6999 31.71 31.2345 31.8623 30.3432 32.8281L30.0025 33.1975C30.5652 34.081 30.5688 35.257 29.9166 36.158Z" fill="#999BA0"/>
<path d="M57.5626 44.1337H53.1095C54.5851 44.1337 55.7814 45.3362 55.7814 46.8195C55.7814 48.3028 54.5851 49.5053 53.1095 49.5053H57.5626C59.0382 49.5053 60.2345 48.3028 60.2345 46.8195C60.2345 45.3362 59.0382 44.1337 57.5626 44.1337Z" fill="#999BA0"/>
<path d="M29.8039 51.8139L13.801 60.1087C12.4977 60.7843 11.0948 61.2444 9.64606 61.4715L1.11328 62.8091V63.1597C1.11328 63.3423 1.27597 63.4817 1.45602 63.4535L14.0992 61.4717C15.5479 61.2446 16.951 60.7844 18.2541 60.1089L34.2569 51.814C37.1837 50.2969 40.4292 49.5052 43.7223 49.5052H39.2691C35.9761 49.5051 32.7308 50.2967 29.8039 51.8139Z" fill="#999BA0"/>
<path d="M75.8591 10.0743C75.859 10.0742 75.859 10.0739 75.8588 10.0737L70.9726 1.31827C70.5187 0.505133 69.6583 0 68.7269 0H62.5176C61.0434 0.0510625 61.0446 2.17609 62.5176 2.22656H68.7269C68.852 2.22656 68.9675 2.29425 69.0283 2.40335L72.9904 9.50282H21.8611L25.8232 2.40335C25.8841 2.29425 25.9996 2.22656 26.1247 2.22656H57.2154C58.6895 2.1755 58.6883 0.0504688 57.2154 0H26.1247C25.1933 0 24.3328 0.505133 23.879 1.31827L18.9927 10.0737C18.9926 10.0739 18.9926 10.0742 18.9924 10.0745C18.8772 10.2812 18.8299 10.5212 18.8609 10.7599L19.4452 15.2463C19.5244 15.8558 20.0831 16.2845 20.6928 16.2066C21.3024 16.1271 21.7324 15.5684 21.653 14.9588L21.2326 11.7297H73.6192L69.1931 45.7188H61.1852C60.7139 44.1591 59.2684 43.0203 57.5626 43.0203H30.7767L35.2714 36.8109C35.8612 35.9962 36.0963 35.0004 35.9335 34.0067C35.7709 33.0147 35.2316 32.148 34.4151 31.5658C32.8946 30.4818 30.7929 30.6992 29.526 32.072L24.5793 37.433L22.3237 20.1094C22.2443 19.4999 21.6852 19.0695 21.076 19.1492C20.4664 19.2286 20.0364 19.7873 20.1158 20.3969L22.6118 39.5654L20.8765 41.446C19.7845 42.6296 18.5024 43.5958 17.0663 44.3178L11.875 46.9273C10.8018 47.4669 9.65334 47.8145 8.46183 47.9606L1.23856 48.8471C0.532445 48.9338 0 49.5357 0 50.2473V63.1596C0 63.5725 0.179906 63.9635 0.493852 64.2319C0.807352 64.5008 1.22491 64.6172 1.62851 64.5532L14.2702 62.5716C15.8414 62.3253 17.3543 61.8293 18.7667 61.097L25.383 57.6675C26.6681 56.9439 25.6893 55.0578 24.3583 55.6909L17.742 59.1204C16.5432 59.7418 15.2591 60.1628 13.9255 60.3721L2.22656 62.2057V50.9691L8.73287 50.1707C10.179 49.9933 11.5725 49.5714 12.8749 48.9168L18.0662 46.3073C19.7423 45.4646 21.2386 44.3372 22.5129 42.956L31.1625 33.5822C31.6703 33.0317 32.513 32.9442 33.1226 33.3788C33.4525 33.6141 33.6704 33.9649 33.7363 34.367C33.8025 34.7707 33.7072 35.1749 33.4679 35.5055L28.8062 41.9455C28.345 42.5827 28.2806 43.414 28.6386 44.1147C28.9952 44.8131 29.7029 45.247 30.4856 45.247H57.5626C59.6308 45.3334 59.6291 48.3065 57.5626 48.3921H43.7224C40.2665 48.3921 36.8162 49.2336 33.7447 50.8257L28.9704 53.3003C28.4244 53.5833 28.2113 54.2552 28.4942 54.801C28.7771 55.3469 29.4491 55.5599 29.9949 55.2772L34.7693 52.8025C37.5256 51.3739 40.6216 50.6187 43.7224 50.6187H57.5626C59.2592 50.6187 60.6988 49.4923 61.1781 47.9455H70.1709C70.7302 47.9455 71.2026 47.5306 71.2748 46.976L75.9906 10.7602C76.0218 10.5211 75.9743 10.2811 75.8591 10.0743Z" fill="black"/>
<path d="M37.6342 30.7575H57.8531C58.8267 30.7575 59.6187 29.9655 59.6187 28.9919V28.2341C58.9645 12.4764 36.5169 12.4886 35.8687 28.2341V28.9919C35.8687 29.9655 36.6606 30.7575 37.6342 30.7575ZM38.0952 28.2341C38.6268 15.4311 56.8653 15.4409 57.3921 28.2341V28.531H38.0952V28.2341Z" fill="black"/>
</svg>
