<svg width="25" height="25" viewBox="0 0 25 25" fill="none" xmlns="http://www.w3.org/2000/svg">
<rect width="24.3478" height="24.3478" rx="2.89855" fill="#FCC232"/>
<path d="M7.55011 10.397C7.56263 10.2378 7.63347 10.0892 7.74852 9.98088C7.86357 9.87254 8.01439 9.81241 8.17094 9.81244H16.8291C16.9856 9.81241 17.1364 9.87254 17.2515 9.98088C17.3665 10.0892 17.4374 10.2378 17.4499 10.397L17.996 17.3357C18.0098 17.5105 17.9879 17.6864 17.9318 17.8522C17.8756 18.018 17.7865 18.1702 17.6699 18.2991C17.5533 18.428 17.4118 18.5309 17.2544 18.6013C17.0969 18.6717 16.9269 18.7081 16.755 18.7082H8.24505C8.07313 18.7081 7.90309 18.6717 7.74562 18.6013C7.58816 18.5309 7.44668 18.428 7.3301 18.2991C7.21352 18.1702 7.12436 18.018 7.06824 17.8522C7.01211 17.6864 6.99024 17.5105 7.00399 17.3357L7.54948 10.397H7.55011Z" stroke="black" stroke-width="0.812543" stroke-linecap="round" stroke-linejoin="round"/>
<path d="M14.9904 11.7187V8.54164C14.9904 7.86755 14.728 7.22108 14.2609 6.74443C13.7938 6.26778 13.1602 6 12.4996 6C11.839 6 11.2054 6.26778 10.7383 6.74443C10.2712 7.22108 10.0088 7.86755 10.0088 8.54164V11.7187" stroke="black" stroke-width="0.812543" stroke-linecap="round" stroke-linejoin="round"/>
</svg>
