<svg width="51" height="85" viewBox="0 0 51 85" fill="none" xmlns="http://www.w3.org/2000/svg">
<path d="M43.1602 83.2669H7.8398C4.19371 83.2669 1.23785 80.3111 1.23785 76.665V7.83974C1.23785 4.19365 4.19371 1.23779 7.8398 1.23779H43.1602C46.8063 1.23779 49.7621 4.19365 49.7621 7.83974V76.665C49.7621 80.3111 46.8063 83.2669 43.1602 83.2669Z" fill="#A7A9BE"/>
<path d="M43.1602 1.23779H38.2087C41.8548 1.23779 44.8107 4.19365 44.8107 7.83974V76.665C44.8107 80.3111 41.8548 83.2669 38.2087 83.2669H43.1602C46.8063 83.2669 49.7621 80.3111 49.7621 76.665V7.83974C49.7621 4.19365 46.8063 1.23779 43.1602 1.23779Z" fill="#9A9B9E"/>
<path d="M45.4709 7.83973V76.665C45.4709 77.9411 44.4363 78.9757 43.1602 78.9757H7.83979C6.56364 78.9757 5.52911 77.9411 5.52911 76.665V7.83973C5.52911 6.56358 6.56364 5.52905 7.83979 5.52905H14.4589C14.8436 5.52905 15.1859 5.77332 15.3112 6.13709L16.1833 8.67108C16.3086 9.03485 16.6509 9.27912 17.0356 9.27912H33.9643C34.3491 9.27912 34.6914 9.03485 34.8166 8.67108L35.6888 6.13709C35.814 5.77332 36.1563 5.52905 36.5411 5.52905H43.1602C44.4363 5.52905 45.4709 6.56358 45.4709 7.83973V7.83973Z" fill="#FAE6A2"/>
<path d="M43.1602 5.52905H38.2087C39.4849 5.52905 40.5194 6.56358 40.5194 7.83973V76.665C40.5194 77.9411 39.4849 78.9757 38.2087 78.9757H43.1602C44.4364 78.9757 45.4709 77.9411 45.4709 76.665V7.83973C45.4709 6.56358 44.4364 5.52905 43.1602 5.52905Z" fill="#ECD279"/>
<path d="M36.3668 43.4224H14.6332C13.1739 43.4224 11.9908 42.2393 11.9908 40.7799V38.9193C11.9908 38.6267 12.228 38.3895 12.5206 38.3895H38.4794C38.7721 38.3895 39.0092 38.6267 39.0092 38.9193V40.7799C39.0092 42.2393 37.8262 43.4224 36.3668 43.4224Z" fill="#FD7E41"/>
<path d="M38.4794 38.3895H33.528C33.8206 38.3895 34.0578 38.6267 34.0578 38.9193V40.7799C34.0578 42.2393 32.8747 43.4224 31.4153 43.4224H36.3668C37.8262 43.4224 39.0092 42.2393 39.0092 40.7799V38.9193C39.0092 38.6267 38.7719 38.3895 38.4794 38.3895Z" fill="#D48145"/>
<path d="M38.4801 33.7682H12.5199C12.2205 33.7682 11.9809 33.5211 11.9903 33.2219C12.0636 30.885 13.1458 21.8484 25.4998 21.8484C37.8539 21.8484 38.9361 30.8851 39.0094 33.2219C39.019 33.5213 38.7795 33.7682 38.4801 33.7682Z" fill="#FD7E41"/>
<path d="M25.5 21.8484C24.618 21.8484 23.7952 21.8959 23.0243 21.9822C33.0501 23.1061 33.9901 31.0518 34.0581 33.2219C34.0675 33.5211 33.8278 33.7682 33.5284 33.7682H38.4799C38.7793 33.7682 39.0189 33.5211 39.0095 33.2219C38.9363 30.8851 37.8542 21.8484 25.5 21.8484V21.8484Z" fill="#FD7E41"/>
<path d="M38.2878 38.3895H12.7122C11.436 38.3895 10.4015 37.355 10.4015 36.0789C10.4015 34.8027 11.436 33.7682 12.7122 33.7682H38.2878C39.5639 33.7682 40.5985 34.8027 40.5985 36.0789C40.5985 37.355 39.5639 38.3895 38.2878 38.3895Z" fill="#C15C2B"/>
<path d="M38.2878 33.7682H33.3363C34.6125 33.7682 35.647 34.8027 35.647 36.0789C35.647 37.355 34.6125 38.3895 33.3363 38.3895H38.2878C39.5639 38.3895 40.5985 37.355 40.5985 36.0789C40.5985 34.8027 39.5639 33.7682 38.2878 33.7682Z" fill="#D06D4A"/>
<path d="M35.568 67.7109H15.432C14.5205 67.7109 13.7816 66.9719 13.7816 66.0604V57.808C13.7816 56.8964 14.5205 56.1575 15.432 56.1575H35.568C36.4795 56.1575 37.2184 56.8964 37.2184 57.808V66.0604C37.2184 66.9719 36.4795 67.7109 35.568 67.7109Z" fill="#43BA7F"/>
<path d="M43.1602 0H7.83981C3.51702 0 0 3.51702 0 7.83981V11.4265C0.0567767 13.0656 2.41945 13.0643 2.47573 11.4265V7.83981C2.47573 4.88214 4.88214 2.47573 7.83981 2.47573H43.1602C46.118 2.47573 48.5243 4.88214 48.5243 7.83981V76.6651C48.5243 79.6227 46.118 82.0291 43.1602 82.0291H7.83981C4.88214 82.0291 2.47573 79.6227 2.47573 76.6651V17.3174C2.41895 15.6783 0.0562816 15.6796 0 17.3174V76.6651C0 80.9878 3.51702 84.5049 7.83981 84.5049H43.1602C47.483 84.5049 51 80.9878 51 76.6651V7.83981C51 3.51702 47.483 0 43.1602 0Z" fill="black"/>
<path d="M45.4709 70.5583C46.1547 70.5583 46.7087 70.004 46.7087 69.3204V7.8398C46.7087 5.88315 45.1168 4.29126 43.1602 4.29126H36.5411C35.6279 4.29126 34.815 4.87141 34.5183 5.73428L33.7242 8.04133H17.2755L16.4814 5.73428C16.1843 4.87124 15.3715 4.29126 14.4586 4.29126H7.8398C5.88315 4.29126 4.29126 5.88315 4.29126 7.8398V76.6651C4.29126 78.6217 5.88315 80.2136 7.8398 80.2136H43.1602C45.1168 80.2136 46.7087 78.6217 46.7087 76.6651V75.1606C46.652 73.5215 44.2891 73.5229 44.233 75.1606V76.6651C44.233 77.2566 43.7517 77.7379 43.1602 77.7379H7.8398C7.24827 77.7379 6.76699 77.2566 6.76699 76.6651V7.8398C6.76699 7.24827 7.24827 6.76699 7.8398 6.76699H14.2188L15.0128 9.07387C15.3097 9.93708 16.1226 10.5171 17.0355 10.5171H33.9642C34.8769 10.5171 35.6898 9.93708 35.987 9.07404L36.7812 6.76699H43.1602C43.7517 6.76699 44.233 7.24827 44.233 7.8398V69.3204C44.233 70.004 44.7871 70.5583 45.4709 70.5583Z" fill="black"/>
<path d="M40.2471 40.7801V39.0349C42.3559 37.6639 42.3534 34.4896 40.2443 33.1216C40.1961 31.7932 39.8898 29.2578 38.4088 26.7688C38.0594 26.1813 37.2993 25.9885 36.7121 26.3381C36.1245 26.6876 35.9316 27.4473 36.2813 28.0348C37.2747 29.7041 37.6108 31.443 37.7223 32.5307H13.2758C13.568 29.5877 15.3662 23.0866 25.5 23.0866C28.3228 23.0866 30.7107 23.587 32.5977 24.5742C33.2036 24.8912 33.9516 24.6569 34.2684 24.0511C34.5853 23.4454 34.3511 22.6974 33.7453 22.3805C27.6679 19.1776 16.7249 20.2167 13.1329 25.9393C11.1333 28.736 10.8023 31.8497 10.7554 33.1219C8.64557 34.4911 8.64524 37.6652 10.7531 39.0351V40.7803C10.7531 42.9198 12.4937 44.6606 14.6334 44.6606H36.367C38.5063 44.6603 40.2471 42.9197 40.2471 40.7801V40.7801ZM38.2878 35.0061C39.708 35.0566 39.707 37.1017 38.2878 37.1517H12.7122C11.292 37.1012 11.2929 35.0561 12.7122 35.0061H38.2878ZM37.7714 40.7801C37.7714 41.5545 37.1414 42.1847 36.3668 42.1847H14.6332C13.8588 42.1847 13.2286 41.5547 13.2286 40.7801V39.6276H37.7714V40.7801Z" fill="black"/>
<path d="M15.4321 54.9197C13.8395 54.9197 12.5437 56.2155 12.5437 57.808V66.0605C12.5437 67.653 13.8395 68.9488 15.4321 68.9488H35.568C37.1605 68.9488 38.4563 67.653 38.4563 66.0605V57.808C38.4563 56.2155 37.1605 54.9197 35.568 54.9197H15.4321ZM35.9806 57.808V66.0605C35.9806 66.2879 35.7956 66.4731 35.568 66.4731H15.4321C15.2046 66.4731 15.0194 66.2879 15.0194 66.0605V57.808C15.0194 57.5806 15.2046 57.3954 15.4321 57.3954H35.568C35.7956 57.3954 35.9806 57.5804 35.9806 57.808Z" fill="black"/>
<path d="M26.3789 58.5671C25.8866 58.0928 25.1031 58.1071 24.6286 58.5995C24.1542 59.0917 24.1686 59.8753 24.6609 60.3498L25.0204 60.6964H22.6688C21.0297 60.7532 21.031 63.1159 22.6688 63.1721H25.2447L24.8776 63.5664C24.4118 64.0669 24.4397 64.85 24.94 65.316C25.4393 65.7811 26.2228 65.7545 26.6895 65.2536L28.9946 62.7778C29.4547 62.2835 29.4338 61.5118 28.9477 61.043L26.3789 58.5671Z" fill="black"/>
</svg>
