<svg width="128" height="48" viewBox="0 0 128 48" fill="none" xmlns="http://www.w3.org/2000/svg">
<rect width="128" height="47.0588" rx="4.70588" fill="#46474A"/>
<rect x="42.3529" width="43.2941" height="47.0588" fill="#FD7E41"/>
<path d="M59.2471 24.8164H56.6016V23.3193H59.2471V20.6533H60.7441V23.3193H63.3896V24.8164H60.7441V27.4482H59.2471V24.8164ZM71.5449 29H64.5586V27.5303L67.0674 24.9941C67.8102 24.2331 68.2956 23.7067 68.5234 23.415C68.7513 23.1188 68.9154 22.8454 69.0156 22.5947C69.1159 22.3441 69.166 22.0843 69.166 21.8154C69.166 21.4144 69.0544 21.1159 68.8311 20.9199C68.6123 20.724 68.3184 20.626 67.9492 20.626C67.5618 20.626 67.1859 20.7148 66.8213 20.8926C66.4567 21.0703 66.0762 21.3232 65.6797 21.6514L64.5312 20.291C65.0234 19.8717 65.4313 19.5755 65.7549 19.4023C66.0785 19.2292 66.4316 19.097 66.8145 19.0059C67.1973 18.9102 67.6257 18.8623 68.0996 18.8623C68.724 18.8623 69.2754 18.9762 69.7539 19.2041C70.2324 19.432 70.6038 19.751 70.8682 20.1611C71.1325 20.5713 71.2646 21.0407 71.2646 21.5693C71.2646 22.0296 71.1826 22.4626 71.0186 22.8682C70.859 23.2692 70.6084 23.6816 70.2666 24.1055C69.9294 24.5293 69.3324 25.1331 68.4756 25.917L67.1904 27.127V27.2227H71.5449V29Z" fill="#231F20"/>
<path d="M106.708 23.5744H104.147V22.4291H106.708V19.8041H107.866V22.4291H110.433V23.5744H107.866V26.1865H106.708V23.5744Z" fill="#FFFFFE"/>
<line x1="17.8824" y1="22.5881" x2="25.4118" y2="22.5881" stroke="white" stroke-width="1.88235"/>
</svg>
