<svg width="128" height="48" viewBox="0 0 128 48" fill="none" xmlns="http://www.w3.org/2000/svg">
<rect width="128" height="47.0588" rx="4.70588" fill="#46474A"/>
<rect x="42.353" width="43.2941" height="47.0588" fill="#FD7E41"/>
<path d="M58.2471 24.8164H55.6016V23.3193H58.2471V20.6533H59.7441V23.3193H62.3896V24.8164H59.7441V27.4482H58.2471V24.8164ZM68.7812 29H66.6689V23.2168L66.6895 22.2666L66.7236 21.2275C66.3727 21.5785 66.1289 21.8086 65.9922 21.918L64.8438 22.8408L63.8252 21.5693L67.0449 19.0059H68.7812V29Z" fill="#231F20"/>
<path d="M106.708 23.5744H104.147V22.4291H106.708V19.8041H107.866V22.4291H110.433V23.5744H107.866V26.1865H106.708V23.5744Z" fill="#FFFFFE"/>
<line x1="17.8823" y1="22.5881" x2="25.4117" y2="22.5881" stroke="white" stroke-width="1.88235"/>
</svg>
