<svg width="166" height="20" viewBox="0 0 166 20" fill="none" xmlns="http://www.w3.org/2000/svg">
<path d="M112.091 5.00049H109.342C109.181 5.00049 109.019 5.16217 108.938 5.32386L107.806 12.438C107.806 12.5997 107.887 12.6805 108.049 12.6805H109.504C109.666 12.6805 109.746 12.5997 109.746 12.438L110.07 10.4169C110.07 10.2553 110.232 10.0936 110.474 10.0936H111.363C113.223 10.0936 114.274 9.2043 114.516 7.42577C114.678 6.69818 114.516 6.05144 114.193 5.64723C113.708 5.24302 112.98 5.00049 112.091 5.00049ZM112.414 7.66829C112.253 8.63841 111.525 8.63841 110.797 8.63841H110.312L110.636 6.77903C110.636 6.69818 110.717 6.61734 110.878 6.61734H111.04C111.525 6.61734 112.01 6.61734 112.253 6.94071C112.414 7.02155 112.414 7.26408 112.414 7.66829Z" fill="#139AD6"/>
<path d="M92.2847 5.00049H89.536C89.3743 5.00049 89.2126 5.16217 89.1318 5.32386L88 12.438C88 12.5997 88.0808 12.6805 88.2425 12.6805H89.536C89.6977 12.6805 89.8594 12.5188 89.9402 12.3572L90.2636 10.4169C90.2636 10.2553 90.4253 10.0936 90.6678 10.0936H91.5571C93.4165 10.0936 94.4674 9.2043 94.7099 7.42577C94.8716 6.69818 94.7099 6.05144 94.3866 5.64723C93.9015 5.24302 93.2548 5.00049 92.2847 5.00049ZM92.608 7.66829C92.4463 8.63841 91.7188 8.63841 90.9912 8.63841H90.587L90.9103 6.77903C90.9103 6.69818 90.9912 6.61734 91.1529 6.61734H91.3145C91.7996 6.61734 92.2847 6.61734 92.5272 6.94071C92.608 7.02155 92.6889 7.26408 92.608 7.66829Z" fill="#263B80"/>
<path d="M100.611 7.58747H99.318C99.2371 7.58747 99.0755 7.66831 99.0755 7.74915L98.9946 8.15336L98.9138 7.99168C98.5904 7.58747 98.0245 7.42578 97.3778 7.42578C95.9226 7.42578 94.6291 8.55758 94.3866 10.0936C94.2249 10.902 94.4674 11.6296 94.8716 12.1147C95.2759 12.5997 95.8417 12.7614 96.5693 12.7614C97.782 12.7614 98.4287 12.0338 98.4287 12.0338L98.3479 12.438C98.3479 12.5997 98.4287 12.6806 98.5904 12.6806H99.803C99.9647 12.6806 100.126 12.5189 100.207 12.3572L100.935 7.82999C100.854 7.74915 100.692 7.58747 100.611 7.58747ZM98.7521 10.1744C98.5904 10.902 98.0245 11.4679 97.2161 11.4679C96.8119 11.4679 96.4885 11.3062 96.3268 11.1445C96.1651 10.902 96.0843 10.5786 96.0843 10.1744C96.1651 9.44685 96.8119 8.88095 97.5394 8.88095C97.9437 8.88095 98.1862 9.04263 98.4287 9.20432C98.6712 9.44685 98.7521 9.85106 98.7521 10.1744Z" fill="#263B80"/>
<path d="M120.337 7.58747H119.044C118.963 7.58747 118.801 7.66831 118.801 7.74915L118.72 8.15336L118.639 7.99168C118.316 7.58747 117.75 7.42578 117.103 7.42578C115.648 7.42578 114.355 8.55758 114.112 10.0936C113.95 10.902 114.193 11.6296 114.597 12.1147C115.001 12.5997 115.567 12.7614 116.295 12.7614C117.508 12.7614 118.154 12.0338 118.154 12.0338L118.073 12.438C118.073 12.5997 118.154 12.6806 118.316 12.6806H119.529C119.69 12.6806 119.852 12.5189 119.933 12.3572L120.66 7.82999C120.58 7.74915 120.499 7.58747 120.337 7.58747ZM118.478 10.1744C118.316 10.902 117.75 11.4679 116.942 11.4679C116.537 11.4679 116.214 11.3062 116.052 11.1445C115.891 10.902 115.81 10.5786 115.81 10.1744C115.891 9.44685 116.537 8.88095 117.265 8.88095C117.669 8.88095 117.912 9.04263 118.154 9.20432C118.478 9.44685 118.559 9.85106 118.478 10.1744Z" fill="#139AD6"/>
<path d="M107.645 7.58789H106.27C106.109 7.58789 106.028 7.66873 105.947 7.74957L104.169 10.4982L103.36 7.91126C103.279 7.74958 103.198 7.66873 102.956 7.66873H101.662C101.501 7.66873 101.42 7.83042 101.42 7.9921L102.875 12.2768L101.501 14.217C101.42 14.3787 101.501 14.6212 101.662 14.6212H102.956C103.118 14.6212 103.198 14.5404 103.279 14.4595L107.726 8.07295C107.968 7.83042 107.806 7.58789 107.645 7.58789Z" fill="#263B80"/>
<path d="M121.873 5.24321L120.741 12.519C120.741 12.6807 120.822 12.7616 120.984 12.7616H122.116C122.277 12.7616 122.439 12.5999 122.52 12.4382L123.652 5.32405C123.652 5.16236 123.571 5.08152 123.409 5.08152H122.116C122.035 5.00068 121.954 5.08152 121.873 5.24321Z" fill="#139AD6"/>
<path d="M165.55 17.3718C165.55 18.2713 164.821 19.0004 163.922 19.0004H139.629C138.729 19.0005 138 18.2713 138 17.3718V1.62908C138 0.72966 138.729 0.000488281 139.629 0.000488281H163.922C164.821 0.000488281 165.55 0.72966 165.55 1.62908V17.3718Z" fill="#306FC5"/>
<path opacity="0.15" d="M139.158 17.3718V1.62908C139.158 0.72966 139.887 0.000488281 140.786 0.000488281H139.628C138.729 0.000488281 138 0.729606 138 1.62908V17.3718C138 18.2713 138.729 19.0005 139.629 19.0005H140.787C139.887 19.0005 139.158 18.2713 139.158 17.3718Z" fill="#202121"/>
<path d="M142.014 7.60333H142.837L142.425 6.55566L142.014 7.60333Z" fill="white"/>
<path d="M146.391 11.1206V11.6071H147.776V12.131H146.391V12.6924H147.925L148.636 11.9065L147.963 11.1206H146.391Z" fill="white"/>
<path d="M157.205 6.55566L156.755 7.60333H157.616L157.205 6.55566Z" fill="white"/>
<path d="M150.395 12.9911V10.8584L149.422 11.9061L150.395 12.9911Z" fill="white"/>
<path d="M152.228 11.4575C152.191 11.233 152.041 11.1206 151.816 11.1206H151.031V11.7941H151.854C152.079 11.7941 152.228 11.6819 152.228 11.4575Z" fill="white"/>
<path d="M154.847 11.72C154.922 11.6825 154.96 11.5701 154.96 11.4581C154.997 11.3086 154.922 11.2336 154.847 11.1961C154.773 11.1587 154.66 11.1587 154.548 11.1587H153.8V11.7574H154.548C154.66 11.7574 154.773 11.7574 154.847 11.72Z" fill="white"/>
<path d="M160.235 5.58301V6.03199L160.011 5.58301H158.252V6.03199L158.028 5.58301H155.633C155.222 5.58301 154.885 5.65791 154.585 5.80755V5.58301H152.902V5.62046V5.80755C152.715 5.65796 152.49 5.58301 152.191 5.58301H146.167L145.755 6.51843L145.344 5.58301H143.997H143.436V6.03199L143.248 5.58301H143.211H141.602L140.854 7.3415L139.993 9.24969L139.977 9.28719H139.993H141.901H141.925L141.939 9.24969L142.164 8.68856H142.65L142.874 9.28719H145.044V9.24969V8.83821L145.232 9.28714H146.316L146.503 8.83821V9.24969V9.28719H147.364H151.667H151.704V8.31432H151.779C151.854 8.31432 151.854 8.31432 151.854 8.42662V9.24974H154.548V9.02525C154.773 9.13766 155.109 9.24974 155.558 9.24974H156.681L156.905 8.65122H157.429L157.653 9.24974H159.823V8.87566V8.68862L160.16 9.24974H160.235H160.273H161.919V5.58301H160.235H160.235ZM147.551 8.72607H147.177H146.953V8.50174V6.66813L146.915 6.75395V6.75293L146.045 8.72607H146.017H145.817H145.493L144.595 6.66813V8.72607H143.323L143.061 8.16484H141.789L141.527 8.72607H140.869L141.976 6.1069H142.912L143.959 8.61372V6.1069H144.184H144.951L144.968 6.1444H144.969L145.442 7.17184L145.781 7.94164L145.793 7.90284L146.541 6.10695H147.551V8.72607H147.551ZM150.133 6.66813H148.674V7.15451H150.096V7.67829H148.674V8.20229H150.133V8.76336H148.038V6.10695H150.133V6.66813ZM152.802 7.63293C152.803 7.63379 152.804 7.63438 152.805 7.63519C152.819 7.65015 152.831 7.66516 152.842 7.67953C152.913 7.77348 152.971 7.91322 152.974 8.11813C152.974 8.12168 152.975 8.12518 152.975 8.12873C152.975 8.13078 152.975 8.13255 152.975 8.13465C152.975 8.13583 152.975 8.13675 152.975 8.13788C152.976 8.15849 152.976 8.17953 152.976 8.20229V8.72612H152.415V8.42667C152.415 8.27703 152.415 8.05248 152.303 7.90284C152.268 7.86749 152.232 7.84419 152.193 7.82761C152.137 7.79129 152.031 7.7907 151.854 7.7907H151.18V8.72612H150.545V6.10695H151.966C152.303 6.10695 152.528 6.10695 152.715 6.2192C152.898 6.32929 153.009 6.51187 153.013 6.80098C153.004 7.19917 152.749 7.41764 152.565 7.49131C152.565 7.49131 152.69 7.51643 152.802 7.63293ZM154.062 8.72607H153.426V6.1069H154.062V8.72607ZM161.358 8.72607H160.534L159.337 6.74292V8.38922L159.333 8.38535V8.72768H158.701V8.72612H158.065L157.841 8.16489H156.531L156.306 8.76341H155.596C155.296 8.76341 154.922 8.68867 154.698 8.46418C154.473 8.23969 154.361 7.94034 154.361 7.45401C154.361 7.07988 154.436 6.70547 154.698 6.40624C154.885 6.18158 155.221 6.10695 155.633 6.10695H156.232V6.66813H155.633C155.408 6.66813 155.296 6.70542 155.146 6.81788C155.034 6.93007 154.96 7.15451 154.96 7.4164C154.96 7.7158 154.997 7.90284 155.146 8.05248C155.259 8.16489 155.409 8.20234 155.596 8.20234H155.857L156.718 6.14451H157.092H157.653L158.701 8.65133V8.52348V7.6784V7.60366V6.14456H159.636L160.721 7.97785V6.14456H161.358V8.72618H161.358V8.72607Z" fill="white"/>
<path d="M152.268 7.1981C152.279 7.18643 152.289 7.17319 152.297 7.15802C152.331 7.10437 152.37 7.00773 152.349 6.87584C152.348 6.86373 152.346 6.85254 152.343 6.84172C152.343 6.83871 152.343 6.83607 152.342 6.83306L152.342 6.83311C152.323 6.76903 152.276 6.72964 152.228 6.70575C152.153 6.66846 152.041 6.66846 151.929 6.66846H151.18V7.26719H151.929C152.041 7.26719 152.153 7.26719 152.228 7.22969C152.239 7.22399 152.249 7.21624 152.259 7.20747L152.259 7.20795C152.259 7.2079 152.263 7.20391 152.268 7.1981Z" fill="white"/>
<path d="M163.565 12.468C163.565 12.2061 163.49 11.9441 163.378 11.7571V10.0735H163.376V9.96104C163.376 9.96104 161.808 9.96104 161.575 9.96104C161.341 9.96104 161.058 10.1855 161.058 10.1855V9.96104H159.337C159.075 9.96104 158.739 10.0359 158.589 10.1855V9.96104H155.521V10.0735V10.1854C155.296 9.9985 154.885 9.96099 154.698 9.96099H152.677V10.0734V10.1854C152.49 9.99844 152.041 9.96094 151.816 9.96094H149.572L149.048 10.5222L148.561 9.96094H148.405H148.15H145.194V10.0733V10.3689V13.7401H148.487L149.028 13.199L149.497 13.7401H149.534H151.431H151.517H151.555H151.592V13.366V12.8796H151.779C152.041 12.8796 152.378 12.8796 152.64 12.7672V13.7025V13.7775H154.323V13.7025V12.8047H154.398C154.51 12.8047 154.51 12.8047 154.51 12.9169V13.7025V13.7775H159.599C159.936 13.7775 160.272 13.7025 160.459 13.5529V13.7025V13.7775H162.068C162.405 13.7775 162.742 13.7401 162.966 13.5904C163.311 13.3837 163.528 13.0178 163.56 12.5815C163.562 12.5686 163.564 12.5557 163.565 12.5427L163.563 12.5406C163.564 12.5164 163.565 12.4925 163.565 12.468ZM151.779 12.2436H151.031V12.3556V12.5802V12.8047V13.2163H149.801L149.085 12.3931L149.083 12.3958L149.048 12.3556L148.225 13.2163H145.83V10.5972H148.262L148.926 11.325L149.066 11.4774L149.085 11.4578L149.871 10.5973H151.854C152.239 10.5973 152.67 10.6923 152.833 11.0838C152.853 11.1614 152.864 11.2476 152.864 11.3455C152.864 12.0938 152.34 12.2436 151.779 12.2436ZM155.521 12.2061C155.595 12.3181 155.633 12.468 155.633 12.6926V13.2162H154.997V12.8796C154.997 12.7297 154.997 12.468 154.885 12.3556C154.81 12.2436 154.66 12.2436 154.436 12.2436H153.762V13.2163H153.126V10.5598H154.548C154.847 10.5598 155.109 10.5598 155.296 10.6719C155.483 10.7843 155.633 10.9714 155.633 11.2707C155.633 11.6822 155.371 11.9067 155.184 11.9816C155.371 12.0562 155.483 12.1312 155.521 12.2061ZM158.103 11.1208H156.643V11.6072H158.065V12.1312H156.643V12.6551H158.103V13.2162H156.007V10.5597H158.103V11.1208ZM159.674 13.2163H158.477V12.6551H159.674C159.786 12.6551 159.861 12.6551 159.936 12.5802C159.973 12.5427 160.011 12.468 160.011 12.3931C160.011 12.3181 159.973 12.2436 159.936 12.2061C159.898 12.1687 159.823 12.1313 159.711 12.1313C159.113 12.0938 158.402 12.1313 158.402 11.3082C158.402 10.934 158.626 10.5224 159.3 10.5224H160.534V11.1584H159.375C159.262 11.1584 159.187 11.1584 159.112 11.1958C159.038 11.2333 159.038 11.3082 159.038 11.383C159.038 11.4953 159.112 11.5327 159.187 11.5698C159.262 11.6073 159.337 11.6073 159.412 11.6073H159.749C160.085 11.6073 160.31 11.6822 160.459 11.8319C160.572 11.9442 160.647 12.1313 160.647 12.3931C160.647 12.9542 160.31 13.2163 159.674 13.2163ZM162.892 12.9542C162.742 13.1041 162.48 13.2163 162.106 13.2163H160.909V12.6551H162.106C162.218 12.6551 162.293 12.6551 162.368 12.5802C162.405 12.5427 162.443 12.468 162.443 12.3931C162.443 12.3181 162.405 12.2436 162.368 12.2061C162.33 12.1687 162.256 12.1313 162.143 12.1313C161.545 12.0938 160.834 12.1313 160.834 11.3083C160.834 10.9526 161.037 10.6314 161.539 10.536C161.599 10.5277 161.662 10.5224 161.732 10.5224H162.967V11.1584H162.143H161.844H161.807C161.694 11.1584 161.62 11.1584 161.545 11.1958C161.507 11.2333 161.47 11.3082 161.47 11.383C161.47 11.4953 161.507 11.5327 161.62 11.5698C161.694 11.6073 161.769 11.6073 161.844 11.6073H161.881H162.181C162.344 11.6073 162.468 11.6275 162.581 11.6673C162.685 11.7048 163.028 11.8583 163.104 12.2589C163.111 12.3008 163.116 12.3446 163.116 12.3931C163.116 12.6177 163.041 12.8047 162.892 12.9542Z" fill="white"/>
<path d="M73.6666 9.50046C73.6666 14.728 69.4444 19.0004 64.1666 19.0004C58.9391 19.0004 54.6666 14.728 54.6666 9.50046C54.6666 4.27296 58.8888 0.000488281 64.1163 0.000488281C69.4444 0.000488281 73.6666 4.27296 73.6666 9.50046Z" fill="#FFB600"/>
<path d="M64.1666 0.000488281C69.3941 0.000488281 73.6666 4.27296 73.6666 9.50046C73.6666 14.728 69.4444 19.0004 64.1666 19.0004C58.9391 19.0004 54.6666 14.728 54.6666 9.50046" fill="#F7981D"/>
<path d="M64.1666 0.000488281C69.3941 0.000488281 73.6666 4.27296 73.6666 9.50046C73.6666 14.728 69.4444 19.0004 64.1666 19.0004" fill="#FF8500"/>
<path d="M51.3994 0.000488281C46.2222 0.0507527 42 4.27296 42 9.50046C42 14.728 46.2222 19.0004 51.5 19.0004C53.9629 19.0004 56.1746 18.0454 57.8836 16.5375C58.2354 16.2359 58.537 15.884 58.8386 15.5322H56.8783C56.6269 15.2306 56.3756 14.8788 56.1746 14.5772H59.5423C59.7433 14.2756 59.9444 13.9237 60.0952 13.5719H55.6217C55.4709 13.2703 55.3201 12.9184 55.2195 12.5666H60.447C60.7486 11.6116 60.9497 10.6063 60.9497 9.55073C60.9497 8.84703 60.8492 8.19359 60.7486 7.54015H54.918C54.9682 7.1883 55.0688 6.88671 55.1693 6.53486H60.3968C60.2963 6.18301 60.1455 5.83116 59.9947 5.52957H55.5714C55.7222 5.17772 55.9232 4.87614 56.1243 4.52429H59.492C59.291 4.17244 59.0396 3.82058 58.7381 3.519H56.8783C57.1799 3.16715 57.4814 2.86556 57.8333 2.56397C56.1746 1.00578 53.9127 0.101017 51.4497 0.101017C51.4497 0.000488184 51.4497 0.000488281 51.3994 0.000488281Z" fill="#FF5050"/>
<path d="M42 9.50052C42 14.728 46.2222 19.0005 51.5 19.0005C53.9629 19.0005 56.1746 18.0455 57.8836 16.5375C58.2354 16.236 58.537 15.8841 58.8386 15.5323H56.8783C56.6269 15.2307 56.3756 14.8788 56.1746 14.5772H59.5423C59.7433 14.2756 59.9444 13.9238 60.0952 13.5719H55.6217C55.4709 13.2704 55.3201 12.9185 55.2195 12.5667H60.447C60.7486 11.6116 60.9497 10.6063 60.9497 9.55079C60.9497 8.84708 60.8492 8.19365 60.7486 7.54021H54.918C54.9682 7.18836 55.0688 6.88677 55.1693 6.53492H60.3968C60.2963 6.18307 60.1455 5.83122 59.9947 5.52963H55.5714C55.7222 5.17778 55.9232 4.87619 56.1243 4.52434H59.492C59.291 4.17249 59.0396 3.82064 58.7381 3.51906H56.8783C57.1799 3.1672 57.4814 2.86562 57.8333 2.56403C56.1746 1.00583 53.9127 0.101074 51.4497 0.101074H51.3994" fill="#E52836"/>
<path d="M51.4999 19.0005C53.9629 19.0005 56.1745 18.0455 57.8835 16.5375C58.2354 16.236 58.537 15.8841 58.8386 15.5323H56.8782C56.6269 15.2307 56.3756 14.8788 56.1745 14.5772H59.5423C59.7433 14.2756 59.9444 13.9238 60.0952 13.5719H55.6216C55.4708 13.2704 55.32 12.9185 55.2195 12.5667H60.447C60.7486 11.6116 60.9497 10.6063 60.9497 9.55079C60.9497 8.84708 60.8491 8.19365 60.7486 7.54021H54.9179C54.9682 7.18836 55.0687 6.88677 55.1692 6.53492H60.3967C60.2962 6.18307 60.1454 5.83122 59.9946 5.52963H55.5714C55.7222 5.17778 55.9232 4.87619 56.1243 4.52434H59.492C59.2909 4.17249 59.0396 3.82064 58.738 3.51906H56.8782C57.1798 3.1672 57.4814 2.86562 57.8333 2.56403C56.1745 1.00583 53.9126 0.101074 51.4497 0.101074H51.3994" fill="#CB2026"/>
<path d="M54.8677 11.913L55.0185 11.0585C54.9682 11.0585 54.8677 11.1088 54.7672 11.1088C54.4153 11.1088 54.3651 10.9077 54.4153 10.8072L54.7169 9.04794H55.2698L55.4206 8.09292H54.918L55.0185 7.48975H54.0132C54.0132 7.48975 53.41 10.8072 53.41 11.2093C53.41 11.8125 53.7619 12.0638 54.2143 12.0638C54.5159 12.0638 54.7672 11.9633 54.8677 11.913Z" fill="white"/>
<path d="M55.2196 10.3049C55.2196 11.7123 56.1746 12.0641 56.9789 12.0641C57.7328 12.0641 58.0344 11.9133 58.0344 11.9133L58.2355 10.9583C58.2355 10.9583 57.6826 11.2096 57.1799 11.2096C56.0741 11.2096 56.2752 10.4054 56.2752 10.4054H58.336C58.336 10.4054 58.4868 9.75197 58.4868 9.50065C58.4868 8.84721 58.1349 8.04298 57.0291 8.04298C55.9736 7.94245 55.2196 9.04827 55.2196 10.3049ZM56.9789 8.84721C57.5318 8.84721 57.4312 9.50065 57.4312 9.55092H56.3254C56.3254 9.50065 56.426 8.84721 56.9789 8.84721Z" fill="white"/>
<path d="M63.3623 11.9132L63.5634 10.8074C63.5634 10.8074 63.0607 11.0588 62.7089 11.0588C62.0052 11.0588 61.7036 10.5058 61.7036 9.90267C61.7036 8.69632 62.3068 8.04289 63.0105 8.04289C63.5131 8.04289 63.9152 8.34447 63.9152 8.34447L64.066 7.28892C64.066 7.28892 63.4629 7.0376 62.9099 7.0376C61.7539 7.0376 60.5978 8.04289 60.5978 9.95294C60.5978 11.2095 61.201 12.064 62.4073 12.064C62.8094 12.064 63.3623 11.9132 63.3623 11.9132Z" fill="white"/>
<path d="M49.3385 7.94189C48.6348 7.94189 48.1322 8.14295 48.1322 8.14295L47.9814 8.99745C47.9814 8.99745 48.4338 8.79639 49.0872 8.79639C49.439 8.79639 49.7406 8.84665 49.7406 9.14824C49.7406 9.3493 49.6904 9.39956 49.6904 9.39956C49.6904 9.39956 49.3888 9.39956 49.238 9.39956C48.3835 9.39956 47.4285 9.75141 47.4285 10.9075C47.4285 11.8123 48.0316 12.0133 48.3835 12.0133C49.0872 12.0133 49.3888 11.5609 49.439 11.5609L49.3888 11.963H50.2935L50.6957 9.19851C50.6957 7.99216 49.6904 7.94189 49.3385 7.94189ZM49.5396 10.2038C49.5396 10.3546 49.439 11.1588 48.8359 11.1588C48.5343 11.1588 48.4338 10.9075 48.4338 10.7567C48.4338 10.5054 48.5845 10.1535 49.3385 10.1535C49.4893 10.2038 49.5396 10.2038 49.5396 10.2038Z" fill="white"/>
<path d="M51.6507 12.0133C51.902 12.0133 53.1586 12.0636 53.1586 10.7064C53.1586 9.4498 51.9523 9.70112 51.9523 9.19848C51.9523 8.94715 52.1534 8.84663 52.5052 8.84663C52.656 8.84663 53.2089 8.89689 53.2089 8.89689L53.3597 7.99213C53.3597 7.99213 53.0079 7.8916 52.4047 7.8916C51.6507 7.8916 50.8967 8.19319 50.8967 9.19848C50.8967 10.3546 52.1534 10.254 52.1534 10.7064C52.1534 11.008 51.8015 11.0583 51.5502 11.0583C51.0978 11.0583 50.6454 10.9075 50.6454 10.9075L50.4946 11.8122C50.5449 11.9128 50.7962 12.0133 51.6507 12.0133Z" fill="white"/>
<path d="M71.7063 7.13818L71.5052 8.49532C71.5052 8.49532 71.1031 7.99268 70.5502 7.99268C69.6454 7.99268 68.8412 9.0985 68.8412 10.4054C68.8412 11.2096 69.2433 12.0641 70.0978 12.0641C70.701 12.0641 71.0528 11.662 71.0528 11.662L71.0026 12.0138H72.0078L72.7618 7.18845L71.7063 7.13818ZM71.2539 9.8022C71.2539 10.3551 71.0026 11.0588 70.4496 11.0588C70.0978 11.0588 69.8967 10.7572 69.8967 10.2546C69.8967 9.45035 70.2486 8.9477 70.701 8.9477C71.0528 8.9477 71.2539 9.19902 71.2539 9.8022Z" fill="white"/>
<path d="M43.8598 11.9636L44.463 8.34453L44.5635 11.9636H45.2672L46.5741 8.34453L46.0212 11.9636H47.0767L47.881 7.13818H46.2222L45.2169 10.1038L45.1667 7.13818H43.709L42.9048 11.9636H43.8598Z" fill="white"/>
<path d="M59.4418 11.9631C59.7433 10.3044 59.7936 8.94724 60.4973 9.19856C60.5978 8.54512 60.7486 8.2938 60.8492 8.04248C60.8492 8.04248 60.7989 8.04248 60.6481 8.04248C60.1957 8.04248 59.8439 8.64565 59.8439 8.64565L59.9444 8.09275H58.9894L58.3359 12.0134H59.4418V11.9631Z" fill="white"/>
<path d="M65.6746 7.94189C64.9709 7.94189 64.4682 8.14295 64.4682 8.14295L64.3174 8.99745C64.3174 8.99745 64.7698 8.79639 65.4233 8.79639C65.7751 8.79639 66.0767 8.84665 66.0767 9.14824C66.0767 9.3493 66.0264 9.39956 66.0264 9.39956C66.0264 9.39956 65.7248 9.39956 65.574 9.39956C64.7196 9.39956 63.7645 9.75141 63.7645 10.9075C63.7645 11.8123 64.3677 12.0133 64.7196 12.0133C65.4233 12.0133 65.7248 11.5609 65.7751 11.5609L65.7248 11.963H66.6296L67.0317 9.19851C67.082 7.99216 66.0264 7.94189 65.6746 7.94189ZM65.9259 10.2038C65.9259 10.3546 65.8254 11.1588 65.2222 11.1588C64.9206 11.1588 64.8201 10.9075 64.8201 10.7567C64.8201 10.5054 64.9709 10.1535 65.7248 10.1535C65.8756 10.2038 65.8756 10.2038 65.9259 10.2038Z" fill="white"/>
<path d="M67.8862 11.9631C68.1878 10.3044 68.2381 8.94724 68.9418 9.19856C69.0423 8.54512 69.1931 8.2938 69.2936 8.04248C69.2936 8.04248 69.2434 8.04248 69.0926 8.04248C68.6402 8.04248 68.2883 8.64565 68.2883 8.64565L68.3889 8.09275H67.4338L66.7804 12.0134H67.8862V11.9631Z" fill="white"/>
<path d="M53.3096 11.2093C53.3096 11.8125 53.6614 12.0638 54.1138 12.0638C54.4657 12.0638 54.7672 11.9633 54.8678 11.913L55.0186 11.0585C54.9683 11.0585 54.8678 11.1088 54.7672 11.1088C54.4154 11.1088 54.3651 10.9077 54.4154 10.8072L54.717 9.04794H55.2699L55.4207 8.09292H54.918L55.0186 7.48975" fill="#DCE5E5"/>
<path d="M55.7222 10.3049C55.7222 11.7123 56.1745 12.0641 56.9788 12.0641C57.7327 12.0641 58.0343 11.9133 58.0343 11.9133L58.2354 10.9583C58.2354 10.9583 57.6825 11.2096 57.1798 11.2096C56.074 11.2096 56.2751 10.4054 56.2751 10.4054H58.3359C58.3359 10.4054 58.4867 9.75197 58.4867 9.50065C58.4867 8.84721 58.1349 8.04298 57.029 8.04298C55.9735 7.94245 55.7222 9.04827 55.7222 10.3049ZM56.9788 8.84721C57.5317 8.84721 57.6322 9.50065 57.6322 9.55092H56.3253C56.3253 9.50065 56.4259 8.84721 56.9788 8.84721Z" fill="#DCE5E5"/>
<path d="M63.3624 11.9132L63.5634 10.8074C63.5634 10.8074 63.0608 11.0588 62.7089 11.0588C62.0052 11.0588 61.7036 10.5058 61.7036 9.90267C61.7036 8.69632 62.3068 8.04289 63.0105 8.04289C63.5132 8.04289 63.9153 8.34447 63.9153 8.34447L64.0661 7.28892C64.0661 7.28892 63.4629 7.0376 62.91 7.0376C61.7539 7.0376 61.1005 8.04289 61.1005 9.95294C61.1005 11.2095 61.201 12.064 62.4073 12.064C62.8095 12.064 63.3624 11.9132 63.3624 11.9132Z" fill="#DCE5E5"/>
<path d="M47.9814 9.04777C47.9814 9.04777 48.4338 8.84671 49.0872 8.84671C49.439 8.84671 49.7406 8.89698 49.7406 9.19856C49.7406 9.39962 49.6904 9.44988 49.6904 9.44988C49.6904 9.44988 49.3888 9.44988 49.238 9.44988C48.3835 9.44988 47.4285 9.80174 47.4285 10.9578C47.4285 11.8626 48.0316 12.0636 48.3835 12.0636C49.0872 12.0636 49.3888 11.6113 49.439 11.6113L49.3888 12.0134H50.2935L50.6957 9.24883C50.6957 8.09274 49.6904 8.04248 49.2883 8.04248L47.9814 9.04777ZM50.0422 10.2039C50.0422 10.3546 49.439 11.1589 48.8359 11.1589C48.5343 11.1589 48.4338 10.9076 48.4338 10.7568C48.4338 10.5054 48.5845 10.1536 49.3385 10.1536C49.4893 10.2039 50.0422 10.2039 50.0422 10.2039Z" fill="#DCE5E5"/>
<path d="M50.5449 11.9128C50.5449 11.9128 50.8465 12.0133 51.701 12.0133C51.9523 12.0133 53.2089 12.0636 53.2089 10.7064C53.2089 9.4498 52.0026 9.70112 52.0026 9.19848C52.0026 8.94715 52.2036 8.84663 52.5555 8.84663C52.7063 8.84663 53.2592 8.89689 53.2592 8.89689L53.41 7.99213C53.41 7.99213 53.0581 7.8916 52.455 7.8916C51.701 7.8916 51.4497 8.19319 51.4497 9.19848C51.4497 10.3546 52.2036 10.254 52.2036 10.7064C52.2036 11.008 51.8518 11.0583 51.6005 11.0583" fill="#DCE5E5"/>
<path d="M71.5052 8.49535C71.5052 8.49535 71.1031 7.99271 70.5502 7.99271C69.6454 7.99271 69.3439 9.09852 69.3439 10.4054C69.3439 11.2096 69.2433 12.0641 70.0978 12.0641C70.701 12.0641 71.0528 11.662 71.0528 11.662L71.0026 12.0139H72.0079L72.7618 7.18848L71.5052 8.49535ZM71.455 9.80223C71.455 10.3551 71.0026 11.0588 70.4497 11.0588C70.0978 11.0588 69.8968 10.7573 69.8968 10.2546C69.8968 9.45038 70.2486 8.94773 70.701 8.94773C71.0528 8.94773 71.455 9.19905 71.455 9.80223Z" fill="#DCE5E5"/>
<path d="M43.8598 11.9636L44.463 8.34453L44.5635 11.9636H45.2672L46.5741 8.34453L46.0212 11.9636H47.0767L47.881 7.13818H46.6244L45.2169 10.1038L45.1667 7.13818H44.6138L42.9048 11.9636H43.8598Z" fill="#DCE5E5"/>
<path d="M58.3862 11.9631H59.4418C59.7434 10.3044 59.7936 8.94724 60.4973 9.19856C60.5979 8.54512 60.7487 8.2938 60.8492 8.04248C60.8492 8.04248 60.7989 8.04248 60.6481 8.04248C60.1957 8.04248 59.8439 8.64565 59.8439 8.64565L59.9444 8.09275" fill="#DCE5E5"/>
<path d="M64.3174 9.04777C64.3174 9.04777 64.7698 8.84671 65.4233 8.84671C65.7751 8.84671 66.0767 8.89698 66.0767 9.19856C66.0767 9.39962 66.0264 9.44988 66.0264 9.44988C66.0264 9.44988 65.7248 9.44988 65.574 9.44988C64.7196 9.44988 63.7645 9.80174 63.7645 10.9578C63.7645 11.8626 64.3677 12.0636 64.7196 12.0636C65.4233 12.0636 65.7248 11.6113 65.7751 11.6113L65.7248 12.0134H66.6296L67.0317 9.24883C67.0317 8.09274 66.0264 8.04248 65.6243 8.04248L64.3174 9.04777ZM66.3783 10.2039C66.3783 10.3546 65.7751 11.1589 65.1719 11.1589C64.8703 11.1589 64.7698 10.9076 64.7698 10.7568C64.7698 10.5054 64.9206 10.1536 65.6746 10.1536C65.8756 10.2039 66.3783 10.2039 66.3783 10.2039Z" fill="#DCE5E5"/>
<path d="M66.8307 11.9631H67.8862C68.1878 10.3044 68.2381 8.94724 68.9418 9.19856C69.0423 8.54512 69.1931 8.2938 69.2936 8.04248C69.2936 8.04248 69.2434 8.04248 69.0926 8.04248C68.6402 8.04248 68.2884 8.64565 68.2884 8.64565L68.3889 8.09275" fill="#DCE5E5"/>
<path d="M28 17.6553C28 18.5694 27.259 19.3105 26.3449 19.3105H1.65512C0.741016 19.3105 0 18.5694 0 17.6553V1.65566C0 0.741504 0.741016 0.000488281 1.65512 0.000488281H26.3449C27.259 0.000488281 28 0.741559 28 1.65566V17.6553Z" fill="white"/>
<path d="M6.2147 9.76657L5.55725 6.61269C5.44486 6.17776 5.11783 6.04837 4.70921 6.03125H1.69494L1.66809 6.17535C4.01577 6.74448 5.56917 8.11747 6.2147 9.76657Z" fill="#F79F1A"/>
<path d="M13.199 6.09473H11.2514L10.035 13.2329H11.9794L13.199 6.09473Z" fill="#059BBF"/>
<path d="M7.40162 13.2258L10.4647 6.09961H8.40344L6.49796 10.9683L6.29458 10.2332C5.92106 9.34887 4.85356 8.07602 3.60034 7.27473L5.34214 13.2282L7.40162 13.2258Z" fill="#059BBF"/>
<path d="M18.754 10.8995C18.7612 10.0891 18.2408 9.47096 17.1195 8.9604C16.4381 8.63063 16.0227 8.41073 16.0277 8.0761C16.0277 7.78046 16.3794 7.46289 17.1416 7.46289C17.7793 7.4531 18.2384 7.59234 18.5976 7.73649L18.7736 7.81716L19.0375 6.27076C18.6514 6.12655 18.048 5.97266 17.2932 5.97266C15.3706 5.97266 14.0172 6.94013 14.005 8.32772C13.9927 9.35382 14.9725 9.92547 15.7102 10.2674C16.4674 10.616 16.7215 10.8391 16.7167 11.1518C16.7118 11.6299 16.1132 11.848 15.5538 11.848C14.7745 11.848 14.3616 11.7405 13.7213 11.4737L13.4724 11.3594L13.1991 12.959C13.6532 13.1574 14.4934 13.3309 15.3657 13.3381C17.4103 13.3381 18.7393 12.383 18.754 10.8995Z" fill="#059BBF"/>
<path d="M21.0674 12.163C21.2897 12.163 23.2758 12.1654 23.5593 12.1654C23.6179 12.414 23.7962 13.2354 23.7962 13.2354H25.6015L24.0258 6.10205H22.5234C22.0568 6.10205 21.71 6.22909 21.5047 6.69317L18.6147 13.2354H20.6596C20.6595 13.2354 20.9916 12.3561 21.0674 12.163ZM22.4011 8.70616C22.3915 8.72568 22.5625 8.29332 22.6602 8.02459L22.792 8.64015C22.792 8.64015 23.1635 10.3454 23.2416 10.7021H21.6268C21.788 10.2917 22.4011 8.70616 22.4011 8.70616Z" fill="#059BBF"/>
<path d="M26.3449 0.000488281H1.65512C0.741016 0.000488281 0 0.741504 0 1.65566V3.3735H28V1.65566C28 0.741504 27.259 0.000488281 26.3449 0.000488281Z" fill="#059BBF"/>
<path d="M26.3449 19.31H1.65512C0.741016 19.31 0 18.569 0 17.6549V15.937H28V17.6549C28 18.569 27.259 19.31 26.3449 19.31Z" fill="#F79F1A"/>
<path opacity="0.15" d="M1.17671 17.6553V1.65566C1.17671 0.741504 1.91778 0.000488281 2.83194 0.000488281H1.65506C0.741016 0.000488281 0 0.741504 0 1.65566V17.6553C0 18.5695 0.741016 19.3105 1.65512 19.3105H2.83199C1.91784 19.3105 1.17671 18.5694 1.17671 17.6553Z" fill="#202121"/>
</svg>
